<svg xmlns="http://www.w3.org/2000/svg" width="16" height="18" viewBox="0 0 16 18" fill="none">
  <path d="M3.83337 16.5L3.83337 14" stroke="#475467" stroke-width="1.5" stroke-linecap="round" stroke-linejoin="round"/>
  <path d="M12.1667 16.5L12.1667 11.5" stroke="#475467" stroke-width="1.5" stroke-linecap="round" stroke-linejoin="round"/>
  <path d="M12.1667 4L12.1667 1.5" stroke="#475467" stroke-width="1.5" stroke-linecap="round" stroke-linejoin="round"/>
  <path d="M3.83337 6.5L3.83337 1.5" stroke="#475467" stroke-width="1.5" stroke-linecap="round" stroke-linejoin="round"/>
  <path d="M3.83337 14C3.0568 14 2.66852 14 2.36224 13.8731C1.95385 13.704 1.6294 13.3795 1.46024 12.9711C1.33337 12.6649 1.33337 12.2766 1.33337 11.5C1.33337 10.7234 1.33337 10.3351 1.46024 10.0289C1.6294 9.62048 1.95385 9.29602 2.36223 9.12687C2.66852 9 3.0568 9 3.83337 9C4.60994 9 4.99823 9 5.30451 9.12687C5.71289 9.29602 6.03735 9.62048 6.20651 10.0289C6.33337 10.3351 6.33337 10.7234 6.33337 11.5C6.33337 12.2766 6.33337 12.6649 6.20651 12.9711C6.03735 13.3795 5.71289 13.704 5.30451 13.8731C4.99823 14 4.60994 14 3.83337 14Z" stroke="#475467" stroke-width="1.5"/>
  <path d="M12.1667 9C11.3902 9 11.0019 9 10.6956 8.87313C10.2872 8.70398 9.96277 8.37952 9.79362 7.97114C9.66675 7.66485 9.66675 7.27657 9.66675 6.5C9.66675 5.72343 9.66675 5.33515 9.79362 5.02886C9.96277 4.62048 10.2872 4.29602 10.6956 4.12687C11.0019 4 11.3902 4 12.1667 4C12.9433 4 13.3316 4 13.6379 4.12687C14.0463 4.29602 14.3707 4.62048 14.5399 5.02886C14.6667 5.33515 14.6667 5.72343 14.6667 6.5C14.6667 7.27657 14.6667 7.66485 14.5399 7.97114C14.3707 8.37952 14.0463 8.70398 13.6379 8.87313C13.3316 9 12.9433 9 12.1667 9Z" stroke="#475467" stroke-width="1.5"/>
</svg>