<svg width="125" height="21" viewBox="0 0 125 21" fill="none" xmlns="http://www.w3.org/2000/svg">
<path d="M49.105 11.9028H40.3296V19.9601H36.6817V0.923733H40.3296V8.44977H49.105V0.923733H52.7675V19.9601H49.105V11.9028Z" fill="#0898A0"/>
<path d="M61.5678 11.6373C61.5483 10.9683 61.3505 10.4297 60.9745 10.0214C60.5984 9.61312 60.1126 9.409 59.5168 9.409C58.8234 9.409 58.2838 9.57621 57.898 9.91076C57.5122 10.2452 57.3193 10.7716 57.3193 11.4897C57.3193 11.6275 57.3242 11.7357 57.3339 11.8144H54.1256C54.1158 11.7062 54.111 11.5537 54.111 11.3569C54.111 10.3436 54.338 9.46067 54.7922 8.70807C55.2463 7.95548 55.8689 7.37989 56.6601 6.98147C57.4512 6.58304 58.3399 6.38387 59.3263 6.38387C60.3714 6.38387 61.3188 6.58304 62.1685 6.98147C63.0181 7.37989 63.6921 7.97262 64.1902 8.75966C64.6882 9.5467 64.9373 10.4961 64.9373 11.6078V19.9897H61.5238V19.2518C60.6155 19.9602 59.4094 20.3143 57.9053 20.3143C57.1239 20.3143 56.4159 20.1545 55.7811 19.8348C55.1462 19.515 54.6432 19.0551 54.2721 18.455C53.901 17.8548 53.7154 17.1514 53.7154 16.3447C53.7154 15.0757 54.1745 14.0746 55.0925 13.3417C56.0105 12.6088 57.2997 12.1439 58.9601 11.9472L61.5678 11.6373ZM59.6194 14.6182C58.6524 14.7264 58.0005 14.9084 57.6636 15.1642C57.3266 15.42 57.1581 15.7496 57.1581 16.1529C57.1581 16.9891 57.6171 17.4072 58.5353 17.4072C59.3556 17.4072 60.0442 17.1367 60.6009 16.5956C61.1576 16.0546 61.475 15.3265 61.5531 14.4116L59.6194 14.6182Z" fill="#0898A0"/>
<path d="M69.5179 0.990257H66.3828V20.0267H69.5179V0.990257Z" fill="#0898A0"/>
<path d="M82.6631 4.14814V0.99017H101.562V4.14814H82.6631Z" fill="#0898A0"/>
<path d="M75.9185 19.96L70.4833 6.75261H74.2191L77.5593 14.9279L82.6615 0.99017H86.5167L78.9364 19.96H75.9185Z" fill="#0898A0"/>
<path d="M96.3375 19.0452C95.2729 19.9012 93.8519 20.3291 92.0744 20.3291C90.8828 20.3291 89.7914 20.0438 88.8 19.4732C87.8088 18.9026 87.025 18.1008 86.4487 17.0678C85.8725 16.0349 85.5844 14.8543 85.5844 13.5262C85.5844 12.1882 85.87 10.9757 86.4414 9.8886C87.0128 8.80152 87.8063 7.94559 88.822 7.32089C89.8378 6.69618 90.9902 6.38387 92.2794 6.38387C93.5588 6.38387 94.6699 6.67162 95.6123 7.24713C96.5548 7.82264 97.2751 8.61455 97.7732 9.62301C98.2713 10.6314 98.5204 11.7602 98.5204 13.0097V14.5297H89.1444C89.3202 15.356 89.7011 16.0226 90.287 16.5292C90.873 17.0358 91.5567 17.2892 92.338 17.2892C92.9533 17.2892 93.4588 17.2228 93.8543 17.09C94.2499 16.9571 94.5819 16.7186 94.8505 16.3743C95.1191 16.0299 95.3413 15.538 95.5171 14.8986H98.6375C98.3836 15.9807 98.0784 16.8268 97.7219 17.4367C97.3654 18.0467 96.9039 18.5829 96.3375 19.0452ZM94.1839 10.1911C93.7249 9.64023 93.0803 9.36475 92.2502 9.36475C91.5177 9.36475 90.8901 9.58362 90.3676 10.0214C89.8451 10.4592 89.4813 11.0568 89.2761 11.8144H95.019C94.9018 11.2929 94.6235 10.7519 94.1839 10.1911Z" fill="#0898A0"/>
<path d="M106.502 20.3291C104.822 20.3291 103.445 19.8913 102.37 19.0157C101.296 18.1402 100.691 16.7628 100.554 14.8838H103.645C103.762 15.8283 104.043 16.485 104.487 16.8539C104.932 17.2228 105.579 17.4072 106.428 17.4072C107.239 17.4072 107.818 17.2966 108.164 17.0752C108.511 16.8539 108.685 16.5907 108.685 16.2857C108.685 16.0594 108.643 15.875 108.56 15.7324C108.477 15.5897 108.313 15.4642 108.069 15.356C107.825 15.2478 107.459 15.1494 106.971 15.0609L104.963 14.7068C103.684 14.4805 102.695 14.0377 101.997 13.3786C101.299 12.7195 100.949 11.8291 100.949 10.7076C100.949 9.82218 101.169 9.05483 101.609 8.40549C102.048 7.75623 102.666 7.25694 103.462 6.90771C104.258 6.55848 105.173 6.38387 106.209 6.38387C107.869 6.38387 109.19 6.81913 110.172 7.68981C111.153 8.56049 111.727 9.92057 111.893 11.7701H108.904C108.807 11.1208 108.648 10.619 108.428 10.2649C108.208 9.91076 107.913 9.66232 107.542 9.51967C107.171 9.37703 106.682 9.30567 106.077 9.30567C105.462 9.30567 105.005 9.41881 104.707 9.64509C104.409 9.87137 104.26 10.1468 104.26 10.4715C104.26 10.7371 104.353 10.9584 104.539 11.1355C104.724 11.3126 105.056 11.4405 105.535 11.5192L107.732 11.9029C109.139 12.1587 110.201 12.6039 110.919 13.2384C111.637 13.873 111.995 14.8248 111.995 16.0939C111.995 16.9695 111.754 17.7269 111.27 18.3664C110.787 19.0059 110.13 19.4929 109.3 19.8273C108.47 20.1618 107.537 20.3291 106.502 20.3291Z" fill="#0898A0"/>
<path d="M115.201 9.43839H113.502V6.48701H115.289V3.09295H118.512V6.48701L123.743 6.54964V9.50102L118.512 9.43839V16.2266C118.512 16.8168 118.741 17.112 119.2 17.112C119.484 17.112 119.857 17.0087 120.321 16.8021C120.785 16.5955 123.219 15.2836 123.893 14.8704L124.079 17.8441C123.64 18.2081 121.022 19.6501 120.328 19.9158C119.635 20.1814 118.961 20.3142 118.307 20.3142C117.398 20.3142 116.654 20.0166 116.073 19.4215C115.491 18.8263 115.201 17.8547 115.201 16.5069V9.43839Z" fill="#0898A0"/>
<path d="M20.0989 14.1255C20.0406 13.9847 15.2519 4.426 15.1733 4.29417C14.9216 3.68576 14.479 3.15118 13.8708 2.79238C12.383 1.91382 10.4699 2.41658 9.59794 3.91536C8.99969 4.94328 9.04692 6.17284 9.61558 7.12724C9.67385 7.2681 14.2574 16.4171 14.3357 16.5489C14.3942 16.69 14.4626 16.8268 14.5412 16.9586C14.7928 17.5672 15.2355 18.1016 15.8437 18.4607C17.3315 19.339 19.2446 18.836 20.1166 17.3374C20.7147 16.3095 20.6676 15.0801 20.0989 14.1255Z" fill="#BDE7EF"/>
<path d="M14.5697 7.65675C15.0939 7.09406 15.4154 6.33791 15.4154 5.50546C15.4154 3.76835 14.0174 2.36 12.2929 2.36C11.2321 2.36 10.2959 2.89296 9.7314 3.70719C9.62851 3.81778 1.85268 13.4705 1.7662 13.595C1.24216 14.1577 0.920532 14.914 0.920532 15.7465C0.920532 17.4836 2.31868 18.8918 4.04321 18.8918C5.1037 18.8918 6.04014 18.3587 6.60459 17.5445C6.70763 17.4342 14.4832 7.78132 14.5697 7.65675Z" fill="#159AA8"/>
<path d="M27.9503 7.65722C28.4746 7.09453 28.7961 6.33838 28.7961 5.50593C28.7961 3.76882 27.3981 2.36047 25.6735 2.36047C24.6129 2.36047 23.6766 2.89343 23.112 3.70765C23.0091 3.81824 15.2335 13.4709 15.147 13.5955C14.6228 14.1582 14.3014 14.9145 14.3014 15.747C14.3014 17.4841 15.6994 18.8923 17.4238 18.8923C18.4845 18.8923 19.4208 18.3591 19.9852 17.545C20.0882 17.4346 27.8638 7.78179 27.9503 7.65722Z" fill="#159AA8"/>
</svg>
